<?xml version="1.0" encoding="UTF-8" standalone="no"?>
<!-- Created with Inkscape (http://www.inkscape.org/) -->

<svg
   width="210mm"
   height="297mm"
   viewBox="0 0 210 297"
   version="1.1"
   id="svg1"
   inkscape:export-filename="g.png"
   inkscape:export-xdpi="78.377144"
   inkscape:export-ydpi="78.377144"
   inkscape:version="1.3.2 (091e20e, 2023-11-25, custom)"
   sodipodi:docname="g.svg"
   xmlns:inkscape="http://www.inkscape.org/namespaces/inkscape"
   xmlns:sodipodi="http://sodipodi.sourceforge.net/DTD/sodipodi-0.dtd"
   xmlns:xlink="http://www.w3.org/1999/xlink"
   xmlns="http://www.w3.org/2000/svg"
   xmlns:svg="http://www.w3.org/2000/svg">
  <sodipodi:namedview
     id="namedview1"
     pagecolor="#505050"
     bordercolor="#ffffff"
     borderopacity="1"
     inkscape:showpageshadow="0"
     inkscape:pageopacity="0"
     inkscape:pagecheckerboard="1"
     inkscape:deskcolor="#505050"
     inkscape:document-units="mm"
     inkscape:zoom="0.5"
     inkscape:cx="195"
     inkscape:cy="589"
     inkscape:window-width="1360"
     inkscape:window-height="745"
     inkscape:window-x="-8"
     inkscape:window-y="-8"
     inkscape:window-maximized="1"
     inkscape:current-layer="layer1" />
  <defs
     id="defs1">
    <linearGradient
       id="linearGradient26"
       inkscape:collect="always">
      <stop
         style="stop-color:#cf1f50;stop-opacity:1;"
         offset="0"
         id="stop25" />
      <stop
         style="stop-color:#9e08dc;stop-opacity:1;"
         offset="1"
         id="stop26" />
    </linearGradient>
    <linearGradient
       id="linearGradient23"
       inkscape:collect="always">
      <stop
         style="stop-color:#a21fc8;stop-opacity:0.89019603;"
         offset="0"
         id="stop23" />
      <stop
         style="stop-color:#9b1fcf;stop-opacity:0;"
         offset="1"
         id="stop24" />
    </linearGradient>
    <linearGradient
       id="linearGradient18"
       inkscape:collect="always">
      <stop
         style="stop-color:#cf1f50;stop-opacity:1;"
         offset="0"
         id="stop18" />
      <stop
         style="stop-color:#9b1fcf;stop-opacity:1;"
         offset="1"
         id="stop19" />
    </linearGradient>
    <linearGradient
       id="linearGradient9"
       inkscape:collect="always">
      <stop
         style="stop-color:#cf1f68;stop-opacity:1;"
         offset="0"
         id="stop9" />
      <stop
         style="stop-color:#9b1fcf;stop-opacity:1;"
         offset="1"
         id="stop10" />
    </linearGradient>
    <linearGradient
       id="linearGradient7"
       inkscape:collect="always">
      <stop
         style="stop-color:#cf1f50;stop-opacity:1;"
         offset="0"
         id="stop7" />
      <stop
         style="stop-color:#9b1fcf;stop-opacity:1;"
         offset="1"
         id="stop8" />
    </linearGradient>
    <linearGradient
       inkscape:collect="always"
       xlink:href="#linearGradient7"
       id="linearGradient8"
       x1="119.02926"
       y1="129.05437"
       x2="180.80061"
       y2="79.030792"
       gradientUnits="userSpaceOnUse"
       gradientTransform="translate(38.798966,84.361593)" />
    <linearGradient
       inkscape:collect="always"
       xlink:href="#linearGradient7"
       id="linearGradient14"
       gradientUnits="userSpaceOnUse"
       gradientTransform="matrix(-0.14796515,0.73605202,-0.73605202,-0.14796515,112.02845,96.550922)"
       x1="119.02926"
       y1="129.05437"
       x2="180.80061"
       y2="79.030792" />
    <linearGradient
       inkscape:collect="always"
       xlink:href="#linearGradient9"
       id="linearGradient15"
       gradientUnits="userSpaceOnUse"
       gradientTransform="matrix(0.40620098,0,0,0.40620098,60.008451,-194.55603)"
       x1="97.163425"
       y1="80.331963"
       x2="131.59141"
       y2="80.331963" />
    <linearGradient
       inkscape:collect="always"
       xlink:href="#linearGradient18"
       id="linearGradient19"
       x1="0.37849274"
       y1="7.7703938"
       x2="83.054741"
       y2="58.21973"
       gradientUnits="userSpaceOnUse" />
    <linearGradient
       inkscape:collect="always"
       xlink:href="#linearGradient23"
       id="linearGradient24"
       x1="176.54822"
       y1="225.92491"
       x2="285.82691"
       y2="225.92491"
       gradientUnits="userSpaceOnUse"
       gradientTransform="translate(-29.072522,-22.569458)" />
    <linearGradient
       inkscape:collect="always"
       xlink:href="#linearGradient26"
       id="linearGradient27"
       gradientUnits="userSpaceOnUse"
       gradientTransform="matrix(1.2514157,0,0,1.2514157,87.168116,-85.101456)"
       x1="97.163425"
       y1="80.331963"
       x2="131.59141"
       y2="80.331963" />
  </defs>
  <g
     inkscape:label="Capa 1"
     inkscape:groupmode="layer"
     id="layer1">
    <path
       style="fill:none;fill-opacity:0.891892;stroke:#d80000;stroke-width:2.503;stroke-dasharray:none;stroke-opacity:0"
       id="path1"
       d="m 45.582932,179.84311 c -0.723617,-4.11659 -0.871657,-8.29916 -0.991809,-12.46752 0.02183,-6.02095 0.390144,-12.05563 1.318435,-18.00978 0.338365,-2.17032 0.65733,-4.35306 1.227902,-6.47419 1.435907,-5.33806 2.816944,-7.64122 5.185174,-12.58831 1.285219,-1.88917 2.413003,-3.89564 3.855654,-5.66751 4.643443,-5.70308 10.404784,-9.41442 17.102076,-12.29758 5.591845,-2.40728 7.598672,-2.6648 13.447554,-4.13399 8.410122,-1.62752 16.985412,-1.55142 25.463452,-0.57605 4.15697,0.47825 6.19297,0.89699 10.24383,1.61211 1.43961,0.29711 2.87921,0.59421 4.31882,0.89131 0,0 -1.98859,-1.50453 -1.98859,-1.50453 v 0 c -1.39254,-0.25877 -2.78509,-0.51754 -4.17763,-0.77631 -3.87506,-0.6102 -6.01195,-0.99994 -9.98066,-1.39414 -8.39479,-0.83383 -16.880305,-0.81993 -25.180684,0.85086 -2.239346,0.58095 -4.510897,1.04953 -6.718043,1.74285 -6.738003,2.11655 -13.595733,5.17909 -19.046423,9.7657 -4.531912,3.81348 -5.468672,5.87542 -8.759502,10.68208 -2.187146,4.59187 -3.887562,7.65763 -5.271751,12.58911 -0.593154,2.11324 -0.910852,4.29552 -1.278131,6.45948 -0.995262,5.86397 -1.523537,11.80045 -1.910855,17.7308 -0.204065,3.92074 -0.525798,7.84037 -0.385339,11.76876 z" />
    <path
       style="fill:none;fill-opacity:0.891892;stroke:#d80000;stroke-width:2.503;stroke-dasharray:none;stroke-opacity:0"
       id="path2"
       d="m 152.01864,129.27648 c -1.40131,-2.26441 -3.00198,-4.3897 -4.64854,-6.479 -2.72009,-3.006 -5.64912,-5.93431 -9.152,-8.03366 -1.64078,-0.98336 -3.33097,-1.88182 -4.99645,-2.82272 -5.62052,-2.89613 -12.01614,-3.41037 -18.2321,-3.58399 -5.35647,-0.10821 -10.57656,1.2614 -15.473362,3.36179 -0.98321,0.42174 -1.934091,0.91518 -2.901135,1.37276 -5.616429,2.77745 -10.335826,6.8343 -14.70492,11.25649 -3.902093,3.92334 -6.892914,8.53716 -9.631841,13.30772 -0.344268,0.63213 -0.688538,1.26427 -1.032806,1.89641 0,0 2.820926,1.61315 2.820926,1.61315 v 0 c 0.322525,-0.6416 0.645049,-1.28321 0.967574,-1.92481 2.584074,-4.82232 5.50886,-9.44605 9.378738,-13.36101 4.338661,-4.39369 9.043556,-8.41992 14.61026,-11.19576 0.961929,-0.4527 1.908516,-0.93955 2.885786,-1.35809 4.87892,-2.08952 10.08225,-3.35391 15.40999,-3.26666 6.27424,0.16693 12.65651,0.79813 18.28854,3.80539 -0.76719,-0.63679 -1.56623,-1.28365 1.83801,1.18502 1.96275,1.42334 3.74891,3.0666 5.41492,4.82361 0.50052,0.52786 0.97598,1.07892 1.46396,1.61838 1.51782,1.97174 2.99134,3.9821 4.14182,6.19621 z" />
    <path
       id="path20"
       style="opacity:1;fill:url(#linearGradient24);stroke:none;stroke-width:10.5833;stroke-dasharray:none;stroke-opacity:1;paint-order:normal"
       d="M 180.96208 155.51661 A 21.541862 21.541862 0 0 1 177.61965 179.18855 A 21.541862 21.541862 0 0 1 151.87393 184.0606 L 230.24641 254.74879 L 256.75435 227.6998 L 180.96208 155.51661 z " />
    <path
       style="fill:none;fill-opacity:0.891892;stroke:url(#linearGradient8);stroke-width:10.5833;stroke-dasharray:none;stroke-opacity:1;paint-order:normal"
       d="m 275.96953,338.74615 c -5.06445,4.84518 -129.27412,-128.25163 -134.70144,-133.77653 -25.77089,-26.23423 -25.88223,-54.71586 -9.48312,-70.81046 18.1776,-17.84008 49.38341,-11.32207 86.97025,21.70602 2.46939,2.16989 53.16551,50.94902 55.6881,48.54967"
       id="path6"
       sodipodi:nodetypes="csssc" />
    <path
       style="fill:none;fill-opacity:0.891892;stroke:url(#linearGradient14);stroke-width:7.9457;stroke-dasharray:none;stroke-opacity:1;paint-order:normal"
       d="m -110.30479,233.48074 c -2.81695,-4.44462 113.5279294,-76.1757 118.3975974,-79.35299 23.1229576,-15.08697 44.1033906,-10.95463 53.5233566,3.4974 10.441575,16.01937 1.02661,38.02403 -28.845323,60.80289 -1.962536,1.49653 -45.367775,31.5939 -43.974984,33.80568"
       id="path13"
       sodipodi:nodetypes="csssc" />
    <circle
       style="fill:url(#linearGradient15);fill-opacity:0.891892;stroke:none;stroke-width:4.29895;stroke-dasharray:none;stroke-opacity:1;paint-order:normal"
       id="circle13"
       cx="106.46869"
       cy="-161.92511"
       transform="rotate(116.74383)"
       r="6.9923415" />
    <path
       style="opacity:1;fill:#b91f94;fill-opacity:0.890196;stroke:none;stroke-width:10.5833;stroke-dasharray:none;stroke-opacity:1;paint-order:normal"
       d="M 57.76251,86.835029 -3.634065,25.438456"
       id="path15" />
    <path
       style="opacity:1;fill:#b91f94;fill-opacity:0.890196;stroke:none;stroke-width:10.5833;stroke-dasharray:none;stroke-opacity:1;paint-order:normal"
       d="M 61.970374,63.117973 -9.9458625,-8.798263"
       id="path16" />
    <path
       style="opacity:1;fill:#ff0000;fill-opacity:0.890196;stroke:none;stroke-width:10.5833;stroke-dasharray:none;stroke-opacity:1;paint-order:normal"
       d="M 65.413172,57.379975 -19.54891,8.3270946 Z"
       id="path17" />
    <path
       style="opacity:1;fill:none;fill-opacity:1;stroke:url(#linearGradient19);stroke-width:10.5833;stroke-dasharray:none;stroke-opacity:1;paint-order:normal"
       d="M 87.328235,62.439128 -1.9167063,-8.1762681 C 3.9194573,3.1906264 121.32155,89.336468 87.328235,62.439128 Z"
       id="path18"
       sodipodi:nodetypes="scs" />
    <circle
       style="fill:url(#linearGradient27);fill-opacity:0.891892;stroke:none;stroke-width:13.2441;stroke-dasharray:none;stroke-opacity:1;paint-order:normal"
       id="circle26"
       cx="230.30186"
       cy="15.427238"
       transform="rotate(41.743832)"
       r="21.541862" />
  </g>
</svg>
